<svg width="30" height="24" viewBox="0 0 30 24" fill="none" xmlns="http://www.w3.org/2000/svg">
<path d="M4.09119 0.000306869C3.74228 0.000306869 3.39298 0.106634 3.12708 0.319901L0.399876 2.50166C-0.133292 2.9282 -0.133292 3.61879 0.399876 4.04424L10.3446 12L0.399876 19.9558C-0.133292 20.3823 -0.133292 21.0729 0.399876 21.4983L3.12708 23.6801C3.66025 24.1066 4.52349 24.1066 5.0553 23.6801L15 15.7243L24.9447 23.6801C25.4765 24.1066 26.3411 24.1066 26.8729 23.6801L29.6001 21.4983C30.1333 21.0718 30.1333 20.3812 29.6001 19.9558L19.6554 12L29.6001 4.04424C30.1333 3.61879 30.1333 2.92711 29.6001 2.50166L26.8729 0.319901C26.3398 -0.106634 25.4765 -0.106634 24.9447 0.319901L15 8.27566L5.0553 0.319901C4.78871 0.106634 4.4401 0.000306869 4.09119 0.000306869Z" fill="black"/>
</svg>
